HIERARCHY
ROOT Hips
{
	OFFSET 0.00000 0.00000 0.00000
	CHANNELS 6 Xposition Yposition Zposition Zrotation Yrotation Xrotation 
	JOINT LHipJoint
	{
		OFFSET 0 0 0
		CHANNELS 3 Zrotation Yrotation Xrotation
		JOINT LeftUpLeg
		{
			OFFSET 1.81638 -1.86202 0.89635
			CHANNELS 3 Zrotation Yrotation Xrotation
			JOINT LeftLeg
			{
				OFFSET 2.63464 -7.23861 0.00000
				CHANNELS 3 Zrotation Yrotation Xrotation
				JOINT LeftFoot
				{
					OFFSET 2.45871 -6.75336 0.00000
					CHANNELS 3 Zrotation Yrotation Xrotation
					JOINT LeftToeBase
					{
						OFFSET 0.34235 -0.94059 2.20020
						CHANNELS 3 Zrotation Yrotation Xrotation
						End Site
						{
							OFFSET 0.00000 -0.00000 1.18611
						}
					}
				}
			}
		}
	}
	JOINT RHipJoint
	{
		OFFSET 0 0 0
		CHANNELS 3 Zrotation Yrotation Xrotation
		JOINT RightUpLeg
		{
			OFFSET -1.84405 -1.86203 0.89635
			CHANNELS 3 Zrotation Yrotation Xrotation
			JOINT RightLeg
			{
				OFFSET -2.71067 -7.44751 0.00000
				CHANNELS 3 Zrotation Yrotation Xrotation
				JOINT RightFoot
				{
					OFFSET -2.47159 -6.79060 0.00000
					CHANNELS 3 Zrotation Yrotation Xrotation
					JOINT RightToeBase
					{
						OFFSET -0.26223 -0.72048 2.36007
						CHANNELS 3 Zrotation Yrotation Xrotation
						End Site
						{
							OFFSET -0.00000 -0.00000 1.23343
						}
					}
				}
			}
		}
	}
	JOINT LowerBack
	{
		OFFSET 0 0 0
		CHANNELS 3 Zrotation Yrotation Xrotation
		JOINT Spine
		{
			OFFSET 0.02089 1.99248 -0.22512
			CHANNELS 3 Zrotation Yrotation Xrotation
			JOINT Spine1
			{
				OFFSET 0.01476 2.01356 -0.03079
				CHANNELS 3 Zrotation Yrotation Xrotation
				JOINT Neck
				{
					OFFSET 0 0 0
					CHANNELS 3 Zrotation Yrotation Xrotation
					JOINT Neck1
					{
						OFFSET 0.04846 1.65098 0.06663
						CHANNELS 3 Zrotation Yrotation Xrotation
						JOINT Head
						{
							OFFSET -0.06061 1.60634 -0.07565
							CHANNELS 3 Zrotation Yrotation Xrotation
							End Site
							{
								OFFSET -0.02954 1.73562 -0.03642
							}
						}
					}
				}
				JOINT LeftShoulder
				{
					OFFSET 0 0 0
					CHANNELS 3 Zrotation Yrotation Xrotation
					JOINT LeftArm
					{
						OFFSET 3.45234 1.47051 -0.06993
						CHANNELS 3 Zrotation Yrotation Xrotation
						JOINT LeftForeArm
						{
							OFFSET 5.49313 -0.00000 0.00000
							CHANNELS 3 Zrotation Yrotation Xrotation
							JOINT LeftHand
							{
								OFFSET 3.29037 -0.00000 0.00000
								CHANNELS 3 Zrotation Yrotation Xrotation
								JOINT LeftFingerBase
								{
									OFFSET 0 0 0
									CHANNELS 3 Zrotation Yrotation Xrotation
									JOINT LeftHandIndex1
									{
										OFFSET 0.72966 -0.00000 0.00000
										CHANNELS 3 Zrotation Yrotation Xrotation
										End Site
										{
											OFFSET 0.58827 -0.00000 0.00000
										}
									}
								}
								JOINT LThumb
								{
									OFFSET 0 0 0
									CHANNELS 3 Zrotation Yrotation Xrotation
									End Site
									{
										OFFSET 0.59725 -0.00000 0.59725
									}
								}
							}
						}
					}
				}
				JOINT RightShoulder
				{
					OFFSET 0 0 0
					CHANNELS 3 Zrotation Yrotation Xrotation
					JOINT RightArm
					{
						OFFSET -3.41935 1.44327 0.20453
						CHANNELS 3 Zrotation Yrotation Xrotation
						JOINT RightForeArm
						{
							OFFSET -5.23684 -0.00000 0.00000
							CHANNELS 3 Zrotation Yrotation Xrotation
							JOINT RightHand
							{
								OFFSET -3.38251 -0.00000 0.00000
								CHANNELS 3 Zrotation Yrotation Xrotation
								JOINT RightFingerBase
								{
									OFFSET 0 0 0
									CHANNELS 3 Zrotation Yrotation Xrotation
									JOINT RightHandIndex1
									{
										OFFSET -0.69145 -0.00000 0.00000
										CHANNELS 3 Zrotation Yrotation Xrotation
										End Site
										{
											OFFSET -0.55747 -0.00000 0.00000
										}
									}
								}
								JOINT RThumb
								{
									OFFSET 0 0 0
									CHANNELS 3 Zrotation Yrotation Xrotation
									End Site
									{
										OFFSET -0.56598 -0.00000 0.56598
									}
								}
							}
						}
					}
				}
			}
		}
	}
}
MOTION
Frames: 16
Frame Time: 0.125
0.00 0.00 0.00 0 0 0 0 0 0 -21 0 0 0 0 0 0 0 0 0 0 0 0 0 0 21 0 0 0 0 0 0 0 0 0 0 0 0 0 0 0 0 0 0 0 0 0 0 -16 0 0 21 0 0 11 0 0 0 -8 0 0 0 0 0 0 0 0 0 0 0 0 0 0 0 0 0 0 0 0 8 0 0 0 0 0 0 0 0 0 0 0 0 0 0 0 0 0
0.00 0.00 0.00 -42.5358 85.5501 -33.4046 0.0000 0.0000 0.0000 -18.1214 -13.9500 -20.4355 4.2563 12.4939 37.5024 1.6421 -1.3164 -23.8557 0.3034 -3.5417 -9.7908 0.0000 0.0000 0.0000 25.9830 -10.5446 -0.3818 -0.7345 -5.4753 15.2694 -1.3995 -12.1603 -29.6803 -0.1300 2.3238 -6.4015 5.2391 -0.7531 16.0185 -2.1963 0.0099 5.8412 -5.3072 0.1918 -2.7505 8.5704 0.4665 -1.9435 -2.5982 0.4620 -0.5482 -2.2957 0.2169 0.1896 0.0000 -0.0000 0.0000 -77.1890 14.6285 30.5141 25.7907 -37.0013 -8.7614 -0.0000 0.0000 -5.3693 -0.0058 14.1250 -0.0014 -7.1250 0.0000 -0.0000 -24.5480 42.6675 1.5126 0.0000 -0.0000 0.0000 82.2367 -15.5614 35.5302 -22.0465 33.0295 -6.6112 0.0000 -0.0000 -0.0166 -9.0047 -15.1492 2.3714 7.1250 -0.0000 -0.0000 17.1235 -44.6028 0.1731
0.00 0.00 0.00 -41.3984 85.3418 -31.5483 0.0000 0.0000 0.0000 -18.7154 -11.9247 -18.2574 3.8116 11.9053 35.3980 2.0242 -3.7887 -25.9899 0.0011 0.2169 0.5961 0.0000 0.0000 0.0000 24.0534 -11.8363 -8.2549 -2.9480 -10.6104 30.9768 -1.3209 -7.3505 -25.4981 -0.6484 5.1509 -14.3396 4.7779 -0.6560 16.2006 -2.7245 0.0603 5.8376 -5.6208 0.2172 -2.8450 9.2664 0.3218 -1.9236 -2.3979 0.2588 -0.3609 -2.3593 0.1214 0.2344 -0.0000 -0.0000 0.0000 -76.4236 13.5898 31.3240 25.7739 -36.9846 -8.7513 -0.0000 0.0000 -3.3592 0.2353 12.9430 0.0527 -7.1250 0.0000 -0.0000 -23.9065 41.6138 2.1337 -0.0000 -0.0000 0.0000 82.6343 -15.2386 34.0544 -22.0202 32.9998 -6.5968 0.0000 -0.0000 -1.0142 -9.9721 -13.6288 2.3724 7.1250 -0.0000 -0.0000 15.7922 -43.2374 0.7057
0.00 0.00 0.00 -25.0738 83.9103 -14.6150 0.0000 0.0000 0.0000 -20.1580 -9.2551 -14.8071 3.0442 10.7663 31.4958 2.1538 -4.0357 -26.8000 0.0140 0.7639 2.0993 0.0000 0.0000 0.0000 21.5037 -8.7023 -16.8337 -6.4876 -14.8848 46.9088 -0.9362 -3.2177 -19.7091 -0.6964 5.3343 -14.8646 2.7741 -0.3938 16.2948 -2.9260 0.0923 5.8422 -4.6915 0.2186 -2.8997 9.5033 0.6264 -1.7072 -2.7350 0.6837 -0.6158 -2.5131 0.3271 0.1455 -0.0000 -0.0000 0.0000 -75.9394 13.0148 32.5027 27.8934 -39.0179 -10.0565 -0.0000 0.0000 -3.0492 0.5594 12.6258 0.1223 -7.1250 0.0000 -0.0000 -23.5230 41.3548 2.2558 -0.0000 -0.0000 0.0000 82.3242 -15.1476 33.7550 -22.9310 34.0133 -7.0997 0.0000 -0.0000 -4.0305 -9.7129 -15.2436 2.5768 7.1250 -0.0000 -0.0000 16.5256 -44.7752 0.0943
0.00 0.00 0.00 -36.8997 81.8247 -24.3309 0.0000 0.0000 0.0000 -18.5678 -5.7395 -0.9924 0.9901 6.3332 17.7543 1.5421 -2.3195 -22.8471 0.2305 -3.0904 -8.5305 0.0000 0.0000 0.0000 23.6593 5.6744 -31.0396 -3.8038 -11.8946 35.3601 -1.2705 2.9072 -20.5470 -0.3372 3.7317 -10.3229 2.7280 -2.9524 18.4784 0.3748 -3.0626 5.2228 -0.4752 -1.3958 -4.8375 10.0094 2.4973 -0.9777 -6.8754 3.1890 -2.7765 -4.0430 1.5536 -0.4248 -0.0000 0.0000 0.0000 -77.0893 13.1255 29.0030 36.8518 -46.0900 -16.1332 -0.0000 0.0000 -7.0072 3.4140 12.8619 0.7608 -7.1250 0.0000 -0.0000 -21.2053 41.8478 1.7358 -0.0000 0.0000 0.0000 79.6160 -16.4421 35.9776 -21.7350 32.6763 -6.4422 0.0000 0.0000 0.3343 -9.3912 -14.6168 2.3900 7.1250 -0.0000 -0.0000 16.6081 -44.1327 0.3661
0.00 0.00 0.00 -64.0865 86.7823 -46.6894 0.0000 0.0000 0.0000 -12.1816 -14.1351 -35.8407 3.5030 11.4679 33.8747 1.5031 -9.8843 -22.0247 0.3851 -3.9852 -11.0350 0.0000 0.0000 0.0000 25.9675 6.8140 -1.7918 -0.1203 -2.2359 6.1582 -0.2928 -3.3491 -12.0152 -0.1236 2.2666 -6.2431 4.1875 2.0939 18.2873 2.4066 3.9349 4.9084 -0.6836 2.0174 -4.8412 9.5993 0.9308 -1.7660 -9.3351 0.9062 -5.2693 -4.3823 0.4427 -1.1674 -0.0000 0.0000 0.0000 -79.0981 27.5364 33.5457 27.7147 -38.8522 -9.9442 -0.0000 0.0000 -0.3422 -0.7171 6.1269 -0.0765 -7.1250 0.0000 -0.0000 -22.5434 35.2721 5.7624 -0.0000 0.0000 0.0000 79.6079 -14.9403 32.6668 -27.7460 38.8813 -9.9638 0.0000 -0.0000 -8.4772 -14.8242 -14.3335 3.7488 7.1250 -0.0000 -0.0000 11.6790 -44.4653 0.1563
0.00 0.00 0.00 -57.1672 79.9482 -42.3729 0.0000 0.0000 0.0000 -6.2967 -12.0990 -35.5781 4.1866 12.4047 37.1791 0.8660 -7.1529 -16.6300 0.0177 -0.8589 -2.3605 0.0000 0.0000 0.0000 30.3791 4.8201 1.4981 -0.8808 -5.9830 16.7352 -0.3111 6.1511 -10.1809 -0.8242 5.7924 -16.1832 2.5029 2.8376 18.3592 0.5534 4.4782 5.6851 -1.7859 2.3225 -4.0030 9.3337 2.2740 -1.5853 -3.4254 2.9657 -5.3610 -2.7398 1.3936 -1.2357 0.0000 0.0000 0.0000 -77.9482 28.5402 30.0417 26.5898 -37.7852 -9.2467 -0.0000 0.0000 -1.9436 -1.9976 6.1856 -0.2153 -7.1250 0.0000 -0.0000 -23.5578 35.2453 6.0783 0.0000 0.0000 0.0000 80.6175 -14.3000 34.0564 -29.2859 40.2734 -10.9451 0.0000 -0.0000 -10.1033 -12.9206 -14.8685 3.3689 7.1250 -0.0000 -0.0000 13.5405 -44.7795 0.0751
0.00 0.00 0.00 -24.5201 80.2537 -14.0520 0.0000 0.0000 0.0000 -15.0626 -4.0745 -24.0389 4.4469 12.7325 38.3750 1.8675 -9.7889 -24.5284 0.0347 -1.2026 -3.3064 0.0000 0.0000 0.0000 20.9896 7.5103 -17.6379 -10.7484 -17.8097 61.9618 -0.4383 7.2737 -12.0879 -1.2527 7.0958 -19.9995 -5.4340 1.5217 20.0555 -3.5833 1.1690 6.4911 -1.0284 0.7611 -4.1840 6.2621 3.6119 -0.9278 1.5032 5.0497 -5.2347 -0.6137 2.4400 -1.3516 0.0000 0.0000 0.0000 -75.2028 15.5674 24.0579 23.1434 -34.2452 -7.2188 -0.0000 -0.0000 10.6113 -0.1475 4.0848 -0.0105 -7.1250 0.0000 -0.0000 -21.5782 33.4117 6.5325 0.0000 0.0000 0.0000 82.0073 -14.3223 34.3678 -27.8108 38.9415 -10.0046 0.0000 -0.0000 -5.5099 -16.0439 -14.9421 4.2407 7.1250 -0.0000 -0.0000 10.7368 -45.2228 -0.0598
0.00 0.00 0.00 -143.8750 87.7025 -133.2300 0.0000 0.0000 0.0000 -14.4459 -0.1475 -6.1439 2.8090 10.3792 30.2137 -0.9770 -19.7441 -3.1217 0.6561 -5.1807 -14.4248 0.0000 0.0000 0.0000 19.9809 13.1899 -23.1707 -1.1381 -6.7749 19.0502 -0.1888 -4.9307 -11.5002 -0.0110 0.6785 -1.8646 -1.5176 -0.9494 17.9356 0.4095 -1.2471 4.3541 1.5622 -0.4897 -5.3215 5.1428 -0.3493 -3.1448 -1.6359 -0.6283 -0.2381 -1.3796 -0.3232 0.4330 -0.0000 -0.0000 0.0000 -73.9857 11.0827 31.8381 69.1953 -58.2996 -42.0855 -0.0000 0.0000 -8.9822 19.1718 -1.1998 -0.4171 -7.1250 0.0000 -0.0000 -5.7530 28.6904 2.2953 -0.0000 -0.0000 0.0000 78.0608 -21.4588 34.3559 -25.4951 36.7057 -8.5841 0.0000 -0.0000 -2.5332 -4.2757 -15.3936 1.1369 7.1250 -0.0000 -0.0000 21.3636 -44.2981 0.3886
0.00 0.00 0.00 -177.8310 85.2424 -169.8520 0.0000 0.0000 0.0000 -12.4414 0.3256 -9.4857 6.1130 14.5369 45.4334 -1.5408 -21.5851 4.6373 0.8190 -5.7744 -16.1312 0.0000 0.0000 0.0000 21.0144 10.9379 -21.2931 -2.3399 -9.5408 27.5020 -0.3111 -5.6495 -14.1239 -0.0109 -0.6728 1.8488 0.2511 -0.8124 19.0153 1.9873 -0.5736 4.6418 2.1018 -0.1495 -5.6158 7.6387 -1.1721 -3.0453 -7.5496 -1.7844 -0.9040 -3.8392 -0.9390 0.1015 0.0000 0.0000 0.0000 -76.8963 13.9188 30.0056 59.0062 -56.0392 -33.5155 -0.0000 0.0000 -6.3334 18.4566 2.5271 0.8431 -7.1250 0.0000 -0.0000 -6.5804 32.5957 2.0105 0.0000 0.0000 0.0000 77.1715 -22.4529 32.6320 -26.0503 37.2583 -8.9181 0.0000 -0.0000 -4.2593 -3.0944 -15.4683 0.8260 7.1250 -0.0000 -0.0000 22.4170 -44.2343 0.4472
0.00 0.00 0.00 -146.0640 84.7180 -138.9410 0.0000 0.0000 0.0000 -7.9976 -0.7572 -17.3649 10.9403 17.9058 62.5876 -0.7498 -17.6526 -3.2426 0.4966 -4.5180 -12.5388 0.0000 0.0000 0.0000 25.9034 10.3433 -17.7041 -3.0081 -10.7081 31.3017 -0.8780 -4.5571 -19.9173 -0.0006 0.1575 -0.4328 3.5118 0.0659 18.5690 3.9164 1.3614 5.0693 1.8610 0.8046 -4.9616 9.2890 -1.3910 -2.2666 -10.8810 -2.1428 -2.3018 -4.7920 -1.0933 -0.5188 -0.0000 -0.0000 0.0000 -80.3287 17.4777 27.0002 41.2942 -48.8182 -19.4077 -0.0000 0.0000 -2.0856 20.2792 7.5993 2.7975 -7.1250 0.0000 -0.0000 -5.6074 38.0201 0.9673 -0.0000 -0.0000 0.0000 77.5694 -18.1921 27.7234 -23.0344 34.1265 -7.1576 0.0000 -0.0000 -0.1001 -7.3471 -17.0711 2.1677 7.1250 -0.0000 -0.0000 19.2876 -46.2389 -0.6123
0.00 0.00 0.00 -42.5109 79.8908 -36.2034 0.0000 0.0000 0.0000 -9.6411 -13.8629 -24.1060 4.3820 12.6521 38.0796 1.0070 -9.4347 -18.1194 0.0038 0.4005 1.1006 0.0000 0.0000 0.0000 28.0811 3.0550 2.9183 -3.5052 -11.4711 33.8855 0.2956 10.1315 0.2164 -1.0768 6.5960 -18.5240 0.2603 2.6378 16.6335 -1.7102 3.6717 5.0474 -2.6702 1.9233 -3.7889 5.2391 1.6534 -2.9800 2.0133 2.0407 0.4919 -0.2156 1.0754 0.6725 0.0000 -0.0000 0.0000 -77.6575 32.1950 27.8583 24.2765 -35.4552 -7.8663 -0.0000 -0.0000 0.7687 -6.8078 7.5695 -0.9010 -7.1250 0.0000 -0.0000 -27.6830 36.1605 6.6674 0.0000 -0.0000 0.0000 82.3272 -17.2806 36.5222 -36.9958 46.1858 -16.2370 0.0000 -0.0000 -9.0480 -10.7403 -15.4433 2.8915 7.1250 -0.0000 -0.0000 15.6733 -45.0889 -0.0353
0.00 0.00 0.00 -177.6260 34.0459 -160.3560 0.0000 0.0000 0.0000 -16.6556 -21.2566 -15.7336 2.0657 9.0016 25.8002 -0.6905 -23.0785 -10.7872 0.4811 4.4479 12.3404 0.0000 0.0000 0.0000 9.4846 22.9510 -28.8129 -1.8393 -8.5230 24.3141 -1.2510 -0.1674 -21.2151 -1.1911 6.9256 -19.4951 2.6769 -2.9090 23.2087 2.6111 -2.2271 4.6415 1.9419 -0.8193 -7.8307 5.1077 -0.1949 -1.2987 -3.5432 -0.2364 -8.6072 -2.0331 -0.0859 -2.5395 -0.0000 0.0000 0.0000 -74.7339 3.7797 46.2674 87.0937 -59.9681 -57.4833 -0.0000 0.0000 -2.3483 16.7482 -0.2393 -0.0720 -7.1250 0.0000 -0.0000 -7.7030 29.6867 2.9006 -0.0000 0.0000 0.0000 75.0913 -20.3349 33.3719 -27.7349 38.8710 -9.9568 0.0000 -0.0000 -5.0408 -3.9431 -18.0660 1.2246 7.1250 -0.0000 -0.0000 22.7311 -46.7345 -1.0248
0.00 0.00 0.00 -150.3880 80.7817 -148.7220 0.0000 0.0000 0.0000 -6.1836 -3.5973 -23.4237 3.5905 11.5946 34.3125 0.5980 -4.4451 -13.7751 0.2964 -3.5005 -9.6753 0.0000 0.0000 0.0000 24.8711 16.0622 -5.2597 -7.4192 -15.6749 50.4424 1.2157 19.0800 6.5561 -0.3815 3.9664 -10.9823 -0.9181 0.4616 20.3654 -0.6980 0.8268 6.2078 -0.4349 0.5970 -4.6576 4.1371 0.1827 -1.3282 1.3447 0.4410 -6.3403 -0.2799 0.1499 -1.7411 -0.0000 0.0000 0.0000 -75.4073 18.7492 18.3748 23.8036 -34.9559 -7.5937 -0.0000 -0.0000 4.9894 -0.0910 11.3497 -0.0179 -7.1250 0.0000 -0.0000 -23.6208 40.1253 3.0352 -0.0000 0.0000 0.0000 80.2446 -19.6583 34.7813 -40.9598 48.6284 -19.1565 0.0000 -0.0000 -3.6550 -19.8219 -19.1266 6.7357 7.1250 -0.0000 -0.0000 8.3802 -50.0299 -1.0455
0.00 0.00 0.00 -185.5730 80.3879 -182.7340 0.0000 0.0000 0.0000 -15.4369 1.2112 0.0954 1.1166 6.7130 18.8677 1.5144 -3.6140 -22.3737 0.2888 -3.4559 -9.5507 0.0000 0.0000 0.0000 16.4978 14.9031 -22.4508 -1.6248 -8.0364 22.8246 0.0040 -4.3413 -6.0402 -0.0076 -0.5628 1.5464 -2.3339 -1.4070 20.3547 -0.7194 -1.8505 6.4786 0.9772 -0.7058 -4.2977 1.7475 -1.8465 -0.3996 0.0191 -2.3436 -7.9796 -0.2449 -1.1762 -2.4650 -0.0000 0.0000 0.0000 -72.9368 8.7716 30.0111 70.1921 -58.4643 -42.9343 -0.0000 0.0000 -5.9208 8.6806 5.1733 0.7887 -7.1250 0.0000 -0.0000 -14.8439 34.8903 3.7914 -0.0000 0.0000 0.0000 78.0385 -22.8558 30.7834 -27.7447 38.8801 -9.9630 0.0000 0.0000 3.5916 -0.9171 -17.5999 0.2773 7.1250 -0.0000 -0.0000 25.1906 -45.9250 -0.6142
0.00 0.00 0.00 -192.3790 77.9330 -184.3190 0.0000 0.0000 0.0000 -13.7158 1.2771 14.2810 0.0268 1.0570 2.9057 0.3561 -2.7464 -10.6600 1.4285 -7.5576 -21.3783 0.0000 0.0000 0.0000 18.5904 13.7535 -22.4014 -3.8108 -11.9043 35.3942 -0.8922 -0.3796 -17.9941 -0.1386 -2.3993 6.6104 3.1067 -2.1082 18.3166 3.1676 -1.5908 5.2364 1.9404 -0.6210 -4.6204 3.6723 -3.1225 -0.9322 -6.9053 -4.4909 -8.5339 -2.8162 -2.0937 -2.8645 0.0000 0.0000 0.0000 -79.6744 13.7177 26.7979 37.9709 -46.8207 -16.9444 -0.0000 0.0000 -0.0524 -0.4612 9.6476 -0.0773 -7.1250 0.0000 -0.0000 -23.3674 38.5329 3.9837 0.0000 0.0000 0.0000 76.3267 -14.5015 31.4651 -39.0931 47.5233 -17.7674 0.0000 -0.0000 -5.7926 -13.9337 -16.6688 4.0706 7.1250 -0.0000 -0.0000 13.1691 -46.6903 -0.5588
